<svg xmlns="http://www.w3.org/2000/svg" viewBox="0 0 553.2 76.5" enable-background="new 0 0 553.2 76.5"><path fill="#131B1F" d="M0 13.7h12.6l6.1 30.5c.6 3 .6 5.1.6 5.1h.1s.1-2.1.8-5.1l7.5-30.5h9.6l7.3 30.5c.8 3 .8 5.1.8 5.1h.1s0-2.1.6-5.1L53 13.7h12.4L53 62.5H39.7l-6.1-24.7c-.8-3.1-1-5.7-1-5.7h-.1s-.2 2.6-1 5.7l-6.1 24.7H11.9L0 13.7zM70.7 13.7h12v48.8h-12V13.7zM95.1 47.3s5.5 5.1 11.7 5.1c2.5 0 5.1-1 5.1-3.9 0-5.8-22-5.6-22-20.6 0-9 7.6-15 17.3-15 10.5 0 15.7 5.5 15.7 5.5l-5.1 9.8s-4.9-4.3-10.8-4.3c-2.5 0-5.2 1.1-5.2 3.8 0 6.1 22 5.1 22 20.5 0 8.1-6.2 15.2-17.2 15.2-11.5 0-17.8-7-17.8-7l6.3-9.1zM130.3 13.7h30.6V24h-18.6v8.9h14.9v10.2h-14.9v9.2h19.6v10.2h-31.6V13.7zM261.3 13.7h12v19.5H291V13.7h12v48.8h-12V43.4h-17.8v19.1h-12V13.7zM337.1 52.3h-15.2L319 62.5h-12.3l16.6-48.8h12.6l16.6 48.8h-12.3l-3.1-10.2zm-7.6-27.5s-1.1 5.3-2 8.4l-2.8 9.5h9.6l-2.7-9.5c-.9-3.1-2-8.4-2-8.4h-.1zM360.4 13.7h13l7.1 20.6c1.1 3.1 2.5 8.1 2.5 8.1h.1s1.4-4.9 2.5-8.1l7.1-20.6h13l4 48.8h-12l-1.5-22c-.3-3.7 0-8.2 0-8.2h-.2s-1.6 5.1-2.7 8.2l-5.1 14.1H378l-5.1-14.1c-1.1-3.1-2.7-8.2-2.7-8.2h-.1s.3 4.5 0 8.2l-1.5 22h-12l3.8-48.8zM420.4 13.7h13l7.1 20.6c1.1 3.1 2.5 8.1 2.5 8.1h.1s1.4-4.9 2.5-8.1l7.1-20.6h13l4 48.8h-12l-1.5-22c-.3-3.7 0-8.2 0-8.2h-.2s-1.6 5.1-2.7 8.2l-5.1 14.1H438l-5.1-14.1c-1.1-3.1-2.7-8.2-2.7-8.2h-.1s.3 4.5 0 8.2l-1.5 22h-12l3.8-48.8zM476 13.7h30.6V24H488v8.9h14.9v10.2H488v9.2h19.6v10.2H476V13.7zM513.6 13.7h17c5 0 7.4.3 9.5 1.2 5.5 2.1 9 7.1 9 14.2 0 5.2-2.5 10.9-7.3 13.3v.1s.7.9 1.8 2.9l9.5 17.1h-13.3L531.1 46h-5.6v16.5h-12V13.7zm17.1 22.1c3.8 0 6.2-2.1 6.2-6 0-3.7-1.4-5.9-7.4-5.9h-4v11.9h5.2zM201.9 45.5c-1.9 2.6-.8 5.7.3 6.7 1 .9 2.7 1.9 4.9 1.9.9 0 3.8.1 7.1-1.5l-9.8-9.6c-1.2.8-2 1.6-2.5 2.5zM207.8 32.4c3.3-1.5 4.9-3.4 4.9-5.8v-.1c0-1.2-.3-2.1-1-2.8-.7-.7-1.5-1-2.6-1s-2 .4-2.7 1.1c-.7.8-1 1.8-1 3v.1c0 .9.2 1.8.6 2.6.4 1 1 1.9 1.8 2.9zM211 0c-21.1 0-38.3 17.1-38.3 38.3 0 21.1 17.1 38.3 38.3 38.3 21.1 0 38.3-17.1 38.3-38.3C249.3 17.1 232.2 0 211 0zm24.7 40h-2.1l-.1-.1-.3-.4c-.6-.8-1.5-.9-2-.2l-.4.5h-.3c-.6 3.8-3.7 8.9-4.7 10.2l6.3 6.2-8.7 6.3-4.8-4.9c-2 1.5-4.1 2.7-6.4 3.5-2.3.8-4.8 1.2-7.5 1.2-2.4 0-4.6-.3-6.6-.9-2-.6-3.8-1.5-5.3-2.7-1.5-1.2-2.6-2.6-3.5-4.3-.8-1.7-1.3-3.6-1.3-5.7v-.1c0-5.9 3.2-10.3 9.5-13.1-1.1-1.6-1.8-3.1-2.3-4.5-.5-1.5-.7-2.9-.7-4.5v-.1c0-1.7.3-3.3 1-4.9.7-1.5 1.6-2.9 2.9-4.1 1.3-1.2 2.8-2.1 4.6-2.8 1.8-.7 3.9-1 6.1-1 2.1 0 4.1.3 5.8.9 1.7.6 3.2 1.5 4.4 2.6 1.2 1.1 2.1 2.3 2.8 3.8.6 1.5 1 3.1 1 4.8v.1c0 2.9-.8 5.3-2.5 7.3s-3.9 3.6-6.6 4.9l8.8 8.4c1.5-1.8 2.5-3 3.2-4.7.3-.8.6-1.6.6-2.7v-.8h-.3v-.6c-2-.1-4-.1-6.4 1.8l-.4-.5c1-1.7 3.6-4 6.8-4.3h4.7l.4.5.3.3c.1 0 .1.1.2.1.5.2 1.2 0 1.6-.6l.4-.5h2.1l.4.5v4.7l-.7.4z"/></svg>