<?xml version="1.0" encoding="utf-8"?>
<!-- Generator: Adobe Illustrator 21.0.0, SVG Export Plug-In . SVG Version: 6.00 Build 0)  -->
<!DOCTYPE svg PUBLIC "-//W3C//DTD SVG 1.1//EN" "http://www.w3.org/Graphics/SVG/1.1/DTD/svg11.dtd">
<svg version="1.1" id="Layer_1" xmlns="http://www.w3.org/2000/svg" xmlns:xlink="http://www.w3.org/1999/xlink" x="0px" y="0px"
	 viewBox="0 0 41 49.05" style="enable-background:new 0 0 41 49.05;" xml:space="preserve">
<path style="fill:#454545;" d="M37.25,7.49H3.75C1.69,7.49,0,5.81,0,3.75v0C0,1.69,1.69,0,3.75,0l33.51,0C39.31,0,41,1.69,41,3.75v0
	C41,5.81,39.31,7.49,37.25,7.49z"/>
<path style="fill:#454545;" d="M37.25,20.5H3.75C1.69,20.5,0,18.81,0,16.75v0c0-2.06,1.69-3.75,3.75-3.75h33.51
	c2.06,0,3.75,1.69,3.75,3.75v0C41,18.81,39.31,20.5,37.25,20.5z"/>
<path style="fill:#454545;" d="M37.25,33.51H3.75C1.69,33.51,0,31.82,0,29.76v0c0-2.06,1.69-3.75,3.75-3.75h33.51
	c2.06,0,3.75,1.69,3.75,3.75v0C41,31.82,39.31,33.51,37.25,33.51z"/>
</svg>
