<?xml version="1.0" encoding="utf-8"?>
<!-- Generator: Adobe Illustrator 21.0.2, SVG Export Plug-In . SVG Version: 6.00 Build 0)  -->
<svg version="1.1" id="Layer_1" xmlns="http://www.w3.org/2000/svg" xmlns:xlink="http://www.w3.org/1999/xlink" x="0px" y="0px"
	 viewBox="0 0 375.1 363.2" style="enable-background:new 0 0 375.1 363.2;" xml:space="preserve">

<g>
	<g>
		<path style="fill:#FFFFFF;" d="M179.8,198.5c0,24.6-8.8,45.7-26.4,63.3c-17.6,17.6-38.8,26.4-63.7,26.4
			c-24.6,0-45.7-8.8-63.3-26.4C8.8,244.3,0,223.2,0,198.5c0-24.9,8.8-46.1,26.4-63.7c17.6-17.6,38.7-26.4,63.3-26.4
			c24.9,0,46.1,8.8,63.7,26.4C171,152.5,179.8,173.7,179.8,198.5z M142.9,198.4c0-14.5-5.2-26.8-15.5-37
			c-10.3-10.2-22.8-15.3-37.3-15.3c-14.3,0-26.6,5.1-37,15.3c-10.3,10.2-15.5,22.5-15.5,37c0,14.5,5.2,26.8,15.5,37
			c10.3,10.2,22.6,15.3,37,15.3c14.5,0,27-5.1,37.3-15.3C137.7,225.2,142.9,212.9,142.9,198.4z"/>
		<path style="fill:#FFFFFF;" d="M375.1,269.3c0,5.2-1.9,9.6-5.6,13.4c-3.8,3.8-8.2,5.6-13.4,5.6c-4.9,0-9.3-1.7-13-5.1
			c-3.8-3.4-5.6-7.7-5.6-12.8v-68.4c0-14.5-5.1-26.8-15.4-37c-10.3-10.2-22.6-15.3-37.1-15.3c-14.2,0-26.5,5.1-36.7,15.3
			c-10.3,10.2-15.4,22.5-15.4,37c0-0.2,0,22.1,0,67c0,5.1-1.9,9.7-5.6,13.5c-3.8,3.9-8.2,5.8-13.4,5.8c-4.9,0-9.3-1.7-13-5.1
			c-3.8-3.4-5.6-7.8-5.6-13.2v-68.6c0-24.6,8.7-45.7,26.1-63.2c17.4-17.5,38.6-26.2,63.5-26.2c24.7,0,45.8,8.8,63.5,26.4
			c17.6,17.6,26.4,38.7,26.4,63.3C374.8,201.5,374.9,224,375.1,269.3z"/>
	</g>
	<g>
		<path style="fill:#FFFFFF;" d="M135,14.8h-17.1V2H135V14.8z M135,93.4h-17.1V30H135V93.4z"/>
		<path style="fill:#FFFFFF;" d="M169.5,14.5V30h10.7v12h-10.7v32.3c0,2.5,0.5,4.2,1.6,5.3c1,1.1,2.4,1.6,4.1,1.6
			c0.9,0,1.7,0,2.3-0.1c0.7-0.1,1.4-0.3,2.3-0.5l1.4,12.4c-1.7,0.6-3.4,1-5,1.3c-1.6,0.3-3.4,0.4-5.3,0.4c-5.9,0-10.4-1.6-13.6-4.9
			c-3.2-3.2-4.8-8.4-4.8-15.4V42h-9.3V30h9.3V14.5H169.5z"/>
		<path style="fill:#FFFFFF;" d="M208,23.3L202,40h-8.4V8.1H208V23.3z"/>
		<path style="fill:#FFFFFF;" d="M252.3,75.8c0-1.9-0.9-3.5-2.7-4.8c-1.8-1.3-5.2-2.5-10.1-3.5c-7.4-1.5-13.1-3.7-16.9-6.7
			c-3.8-3-5.8-7.1-5.8-12.2c0-5.4,2.3-10.1,6.9-13.9c4.6-3.8,10.7-5.7,18.4-5.7c8,0,14.4,1.9,19.2,5.7c4.8,3.8,7.1,8.6,6.9,14.3
			l-0.1,0.4h-16.5c0-2.5-0.8-4.6-2.5-6.2c-1.6-1.6-4-2.4-7.1-2.4c-2.7,0-4.9,0.7-6.5,2.1c-1.6,1.4-2.4,3-2.4,5c0,2,0.8,3.5,2.5,4.8
			c1.7,1.2,5,2.3,10.1,3.3c7.8,1.6,13.6,3.9,17.4,6.9c3.8,3,5.7,7.2,5.7,12.5c0,5.7-2.4,10.4-7.3,14c-4.9,3.6-11.3,5.4-19.3,5.4
			c-8.4,0-15.1-2.1-20-6.4c-4.9-4.3-7.2-9.2-7-14.6l0.1-0.4H231c0.1,3.4,1.2,5.9,3.3,7.4c2.1,1.5,4.9,2.3,8.3,2.3
			c3.2,0,5.6-0.6,7.2-1.9C251.5,79.8,252.3,78,252.3,75.8z"/>
	</g>
</g>
<g>
	<path style="fill:#FFFFFF;" d="M24.7,354.4c-0.3-0.6-0.5-1.3-0.7-2s-0.3-1.4-0.4-2.2c-0.8,1.4-1.8,2.5-3.1,3.4s-2.8,1.3-4.6,1.3
		c-2.9,0-5.2-0.8-6.8-2.3s-2.4-3.6-2.4-6.2c0-2.8,1.1-4.9,3.2-6.4c2.1-1.5,5.2-2.3,9.3-2.3h4.3v-2.2c0-1.3-0.4-2.4-1.1-3.1
		s-1.8-1.1-3.2-1.1c-1.2,0-2.2,0.3-2.8,0.9c-0.7,0.6-1,1.4-1,2.5H8L8,334.5c-0.1-2.4,0.9-4.4,3.1-6.1c2.2-1.7,5-2.6,8.6-2.6
		c3.4,0,6.1,0.8,8.2,2.5s3.1,4.1,3.1,7.3v11.6c0,1.3,0.1,2.6,0.3,3.7s0.5,2.3,0.9,3.5H24.7z M17.7,349.3c1.3,0,2.5-0.3,3.5-1
		c1-0.7,1.7-1.4,2.1-2.3v-4h-4.3c-1.6,0-2.8,0.4-3.6,1.2c-0.8,0.8-1.2,1.8-1.2,2.9c0,1,0.3,1.7,0.9,2.3
		C15.8,349,16.7,349.3,17.7,349.3z"/>
	<path style="fill:#FFFFFF;" d="M45.8,319.4v6.9h4.7v5.3h-4.7v14.3c0,1.1,0.2,1.9,0.7,2.3c0.5,0.5,1.1,0.7,1.8,0.7
		c0.4,0,0.7,0,1-0.1c0.3,0,0.6-0.1,1-0.2l0.6,5.5c-0.8,0.3-1.5,0.5-2.2,0.6s-1.5,0.2-2.3,0.2c-2.6,0-4.6-0.7-6-2.2
		c-1.4-1.4-2.1-3.7-2.1-6.8v-14.3h-4.1v-5.3h4.1v-6.9H45.8z"/>
	<path style="fill:#FFFFFF;" d="M67.2,340.1c0-4.2,1.2-7.6,3.5-10.3c2.3-2.7,5.6-4,9.7-4c4.2,0,7.4,1.3,9.8,4
		c2.4,2.7,3.5,6.1,3.5,10.3v0.5c0,4.2-1.2,7.7-3.5,10.3c-2.3,2.7-5.6,4-9.7,4c-4.2,0-7.4-1.3-9.7-4c-2.3-2.7-3.5-6.1-3.5-10.3V340.1
		z M74.8,340.6c0,2.6,0.4,4.6,1.3,6.2c0.9,1.5,2.4,2.3,4.4,2.3c2,0,3.4-0.8,4.3-2.3c0.9-1.6,1.4-3.6,1.4-6.2v-0.5
		c0-2.5-0.5-4.5-1.4-6.1c-0.9-1.6-2.4-2.4-4.3-2.4c-2,0-3.4,0.8-4.3,2.4c-0.9,1.6-1.4,3.6-1.4,6.1V340.6z"/>
	<path style="fill:#FFFFFF;" d="M105.3,326.3l0.3,4c0.9-1.4,2.1-2.6,3.5-3.3c1.4-0.8,2.9-1.2,4.6-1.2c2.8,0,5.1,0.9,6.6,2.7
		c1.6,1.8,2.4,4.7,2.4,8.7v17.2h-7.6v-17.2c0-2-0.4-3.4-1.1-4.3c-0.7-0.8-1.8-1.3-3.2-1.3c-1.1,0-2.1,0.2-3,0.6
		c-0.9,0.4-1.6,1-2.1,1.8v20.3h-7.6v-28.1H105.3z"/>
	<path style="fill:#FFFFFF;" d="M137.5,319.4v6.9h4.7v5.3h-4.7v14.3c0,1.1,0.2,1.9,0.7,2.3c0.5,0.5,1.1,0.7,1.8,0.7
		c0.4,0,0.7,0,1-0.1c0.3,0,0.6-0.1,1-0.2l0.6,5.5c-0.8,0.3-1.5,0.5-2.2,0.6s-1.5,0.2-2.3,0.2c-2.6,0-4.6-0.7-6-2.2
		c-1.4-1.4-2.1-3.7-2.1-6.8v-14.3h-4.1v-5.3h4.1v-6.9H137.5z"/>
	<path style="fill:#FFFFFF;" d="M163.5,354.4c-0.3-0.6-0.5-1.3-0.7-2s-0.3-1.4-0.4-2.2c-0.8,1.4-1.8,2.5-3.1,3.4s-2.8,1.3-4.6,1.3
		c-2.9,0-5.2-0.8-6.8-2.3c-1.6-1.5-2.4-3.6-2.4-6.2c0-2.8,1.1-4.9,3.2-6.4c2.1-1.5,5.2-2.3,9.3-2.3h4.3v-2.2c0-1.3-0.4-2.4-1.1-3.1
		c-0.7-0.7-1.8-1.1-3.2-1.1c-1.2,0-2.2,0.3-2.8,0.9s-1,1.4-1,2.5h-7.3l-0.1-0.2c-0.1-2.4,0.9-4.4,3.1-6.1c2.2-1.7,5-2.6,8.6-2.6
		c3.4,0,6.1,0.8,8.2,2.5c2.1,1.7,3.1,4.1,3.1,7.3v11.6c0,1.3,0.1,2.6,0.3,3.7s0.5,2.3,0.9,3.5H163.5z M156.5,349.3
		c1.3,0,2.5-0.3,3.5-1s1.7-1.4,2.1-2.3v-4h-4.3c-1.6,0-2.8,0.4-3.6,1.2c-0.8,0.8-1.2,1.8-1.2,2.9c0,1,0.3,1.7,0.9,2.3
		C154.6,349,155.4,349.3,156.5,349.3z"/>
	<path style="fill:#FFFFFF;" d="M190.2,332.8l-2.8-0.1c-1.1,0-2.1,0.2-2.8,0.7c-0.7,0.5-1.3,1.1-1.7,2v19h-7.6v-28.1h7l0.3,4.2
		c0.7-1.5,1.5-2.6,2.6-3.4s2.3-1.2,3.6-1.2c0.4,0,0.7,0,1.1,0.1c0.3,0.1,0.6,0.1,1,0.2L190.2,332.8z"/>
	<path style="fill:#FFFFFF;" d="M202.1,319.6h-7.6v-5.7h7.6V319.6z M202.1,354.4h-7.6v-28.1h7.6V354.4z"/>
	<path style="fill:#FFFFFF;" d="M207.2,340.1c0-4.2,1.2-7.6,3.5-10.3c2.3-2.7,5.6-4,9.7-4c4.2,0,7.4,1.3,9.8,4
		c2.4,2.7,3.5,6.1,3.5,10.3v0.5c0,4.2-1.2,7.7-3.5,10.3s-5.6,4-9.7,4c-4.2,0-7.4-1.3-9.7-4c-2.3-2.7-3.5-6.1-3.5-10.3V340.1z
		 M214.7,340.6c0,2.6,0.4,4.6,1.3,6.2c0.9,1.5,2.4,2.3,4.4,2.3c2,0,3.4-0.8,4.3-2.3c0.9-1.6,1.4-3.6,1.4-6.2v-0.5
		c0-2.5-0.5-4.5-1.4-6.1c-0.9-1.6-2.4-2.4-4.3-2.4c-2,0-3.4,0.8-4.3,2.4c-0.9,1.6-1.4,3.6-1.4,6.1V340.6z"/>
	<path style="fill:#FFFFFF;" d="M276.9,341.1c0,4.2-1,7.5-2.9,10c-1.9,2.5-4.6,3.8-8,3.8c-1.5,0-2.8-0.3-3.9-0.8
		c-1.1-0.5-2.1-1.3-2.9-2.4v13.5h-7.6v-38.9h6.8l0.4,3.3c0.8-1.2,1.8-2.2,3-2.8s2.5-1,4.1-1c3.5,0,6.2,1.4,8.1,4.1
		c1.9,2.7,2.9,6.3,2.9,10.7V341.1z M269.3,340.6c0-2.6-0.4-4.8-1.3-6.4c-0.9-1.6-2.2-2.5-4-2.5c-1.1,0-2.1,0.2-2.9,0.7
		c-0.8,0.5-1.4,1.1-1.9,2v12.3c0.5,0.8,1.1,1.4,1.9,1.8c0.8,0.4,1.8,0.6,3,0.6c1.8,0,3.2-0.7,4-2.2s1.3-3.4,1.3-5.8V340.6z"/>
	<path style="fill:#FFFFFF;" d="M289.6,354.4H282v-40.5h7.6V354.4z"/>
	<path style="fill:#FFFFFF;" d="M312.3,354.4c-0.3-0.6-0.5-1.3-0.7-2c-0.2-0.7-0.3-1.4-0.4-2.2c-0.8,1.4-1.8,2.5-3.1,3.4
		s-2.8,1.3-4.6,1.3c-2.9,0-5.2-0.8-6.8-2.3c-1.6-1.5-2.4-3.6-2.4-6.2c0-2.8,1.1-4.9,3.2-6.4c2.1-1.5,5.2-2.3,9.3-2.3h4.3v-2.2
		c0-1.3-0.4-2.4-1.1-3.1s-1.8-1.1-3.2-1.1c-1.2,0-2.2,0.3-2.8,0.9s-1,1.4-1,2.5h-7.3l-0.1-0.2c-0.1-2.4,0.9-4.4,3.1-6.1
		c2.2-1.7,5-2.6,8.6-2.6c3.4,0,6.1,0.8,8.2,2.5s3.1,4.1,3.1,7.3v11.6c0,1.3,0.1,2.6,0.3,3.7c0.2,1.2,0.5,2.3,0.9,3.5H312.3z
		 M305.4,349.3c1.3,0,2.5-0.3,3.5-1c1-0.7,1.7-1.4,2.1-2.3v-4h-4.3c-1.6,0-2.8,0.4-3.6,1.2c-0.8,0.8-1.2,1.8-1.2,2.9
		c0,1,0.3,1.7,0.9,2.3C303.5,349,304.3,349.3,305.4,349.3z"/>
	<path style="fill:#FFFFFF;" d="M336.1,349.1c1.3,0,2.4-0.4,3.1-1.2c0.8-0.8,1.2-1.8,1.2-3.2h6.9l0.1,0.2c0.1,2.8-1,5.2-3.2,7.1
		c-2.2,1.9-4.9,2.9-8.1,2.9c-4.2,0-7.4-1.3-9.6-4c-2.3-2.7-3.4-6.1-3.4-10.2V340c0-4.1,1.1-7.5,3.4-10.2c2.3-2.7,5.5-4,9.6-4
		c3.4,0,6.2,1,8.3,3c2.1,2,3.1,4.6,3,7.8l-0.1,0.2h-6.9c0-1.5-0.4-2.7-1.2-3.6c-0.8-1-1.8-1.4-3.2-1.4c-2,0-3.3,0.8-4.2,2.3
		c-0.8,1.6-1.2,3.6-1.2,6v0.8c0,2.5,0.4,4.5,1.2,6C332.7,348.3,334.1,349.1,336.1,349.1z"/>
	<path style="fill:#FFFFFF;" d="M363.9,354.9c-4.2,0-7.5-1.3-9.8-3.9c-2.4-2.6-3.5-5.9-3.5-9.9v-1c0-4.2,1.1-7.6,3.4-10.3
		c2.3-2.7,5.4-4,9.4-4c3.8,0,6.7,1.2,8.7,3.5c2,2.3,3,5.4,3,9.3v3.9h-16.7l-0.1,0.2c0.1,1.9,0.7,3.5,1.8,4.7c1,1.2,2.6,1.8,4.7,1.8
		c1.7,0,3.1-0.2,4.3-0.5c1.2-0.3,2.4-0.9,3.7-1.6l2.1,4.7c-1.1,0.9-2.6,1.7-4.6,2.3C368.3,354.6,366.2,354.9,363.9,354.9z
		 M363.4,331.6c-1.5,0-2.7,0.5-3.5,1.6s-1.3,2.4-1.5,4.2l0.1,0.1h9.2v-0.6c0-1.6-0.3-2.9-1-3.9C366,332.1,364.9,331.6,363.4,331.6z"
		/>
</g>
<g>
	<g>
		<path style="fill:#FFFFFF;" d="M179.8,196.5c0,24.6-8.8,45.7-26.4,63.3c-17.6,17.6-38.8,26.4-63.7,26.4
			c-24.6,0-45.7-8.8-63.3-26.4C8.8,242.3,0,221.2,0,196.5c0-24.9,8.8-46.1,26.4-63.7c17.6-17.6,38.7-26.4,63.3-26.4
			c24.9,0,46.1,8.8,63.7,26.4C171,150.5,179.8,171.7,179.8,196.5z M142.9,196.4c0-14.5-5.2-26.8-15.5-37
			c-10.3-10.2-22.8-15.3-37.3-15.3c-14.3,0-26.6,5.1-37,15.3c-10.3,10.2-15.5,22.5-15.5,37c0,14.5,5.2,26.8,15.5,37
			c10.3,10.2,22.6,15.3,37,15.3c14.5,0,27-5.1,37.3-15.3C137.7,223.2,142.9,210.9,142.9,196.4z"/>
		<path style="fill:#FFFFFF;" d="M375.1,267.3c0,5.2-1.9,9.6-5.6,13.4c-3.8,3.8-8.2,5.6-13.4,5.6c-4.9,0-9.3-1.7-13-5.1
			c-3.8-3.4-5.6-7.7-5.6-12.8v-68.4c0-14.5-5.1-26.8-15.4-37c-10.3-10.2-22.6-15.3-37.1-15.3c-14.2,0-26.5,5.1-36.7,15.3
			c-10.3,10.2-15.4,22.5-15.4,37c0-0.2,0,22.1,0,67c0,5.1-1.9,9.7-5.6,13.5c-3.8,3.9-8.2,5.8-13.4,5.8c-4.9,0-9.3-1.7-13-5.1
			c-3.8-3.4-5.6-7.8-5.6-13.2v-68.6c0-24.6,8.7-45.7,26.1-63.2c17.4-17.5,38.6-26.2,63.5-26.2c24.7,0,45.8,8.8,63.5,26.4
			c17.6,17.6,26.4,38.7,26.4,63.3C374.8,199.5,374.9,222,375.1,267.3z"/>
	</g>
	<g>
		<path style="fill:#FFFFFF;" d="M135,12.8h-17.1V0H135V12.8z M135,91.4h-17.1V28H135V91.4z"/>
		<path style="fill:#FFFFFF;" d="M169.5,12.5V28h10.7v12h-10.7v32.3c0,2.5,0.5,4.2,1.6,5.3c1,1.1,2.4,1.6,4.1,1.6
			c0.9,0,1.7,0,2.3-0.1c0.7-0.1,1.4-0.3,2.3-0.5l1.4,12.4c-1.7,0.6-3.4,1-5,1.3c-1.6,0.3-3.4,0.4-5.3,0.4c-5.9,0-10.4-1.6-13.6-4.9
			c-3.2-3.2-4.8-8.4-4.8-15.4V40h-9.3V28h9.3V12.5H169.5z"/>
		<path style="fill:#FFFFFF;" d="M208,21.3L202,38h-8.4V6.1H208V21.3z"/>
		<path style="fill:#FFFFFF;" d="M252.3,73.8c0-1.9-0.9-3.5-2.7-4.8c-1.8-1.3-5.2-2.5-10.1-3.5c-7.4-1.5-13.1-3.7-16.9-6.7
			c-3.8-3-5.8-7.1-5.8-12.2c0-5.4,2.3-10.1,6.9-13.9c4.6-3.8,10.7-5.7,18.4-5.7c8,0,14.4,1.9,19.2,5.7c4.8,3.8,7.1,8.6,6.9,14.3
			l-0.1,0.4h-16.5c0-2.5-0.8-4.6-2.5-6.2c-1.6-1.6-4-2.4-7.1-2.4c-2.7,0-4.9,0.7-6.5,2.1c-1.6,1.4-2.4,3-2.4,5c0,2,0.8,3.5,2.5,4.8
			c1.7,1.2,5,2.3,10.1,3.3c7.8,1.6,13.6,3.9,17.4,6.9c3.8,3,5.7,7.2,5.7,12.5c0,5.7-2.4,10.4-7.3,14c-4.9,3.6-11.3,5.4-19.3,5.4
			c-8.4,0-15.1-2.1-20-6.4c-4.9-4.3-7.2-9.2-7-14.6l0.1-0.4H231c0.1,3.4,1.2,5.9,3.3,7.4c2.1,1.5,4.9,2.3,8.3,2.3
			c3.2,0,5.6-0.6,7.2-1.9C251.5,77.8,252.3,76,252.3,73.8z"/>
	</g>
</g>
<g>
	<path style="fill:#FFFFFF;" d="M24.7,352.4c-0.3-0.6-0.5-1.3-0.7-2s-0.3-1.4-0.4-2.2c-0.8,1.4-1.8,2.5-3.1,3.4s-2.8,1.3-4.6,1.3
		c-2.9,0-5.2-0.8-6.8-2.3s-2.4-3.6-2.4-6.2c0-2.8,1.1-4.9,3.2-6.4c2.1-1.5,5.2-2.3,9.3-2.3h4.3v-2.2c0-1.3-0.4-2.4-1.1-3.1
		s-1.8-1.1-3.2-1.1c-1.2,0-2.2,0.3-2.8,0.9c-0.7,0.6-1,1.4-1,2.5H8L8,332.5c-0.1-2.4,0.9-4.4,3.1-6.1c2.2-1.7,5-2.6,8.6-2.6
		c3.4,0,6.1,0.8,8.2,2.5s3.1,4.1,3.1,7.3v11.6c0,1.3,0.1,2.6,0.3,3.7s0.5,2.3,0.9,3.5H24.7z M17.7,347.3c1.3,0,2.5-0.3,3.5-1
		c1-0.7,1.7-1.4,2.1-2.3v-4h-4.3c-1.6,0-2.8,0.4-3.6,1.2c-0.8,0.8-1.2,1.8-1.2,2.9c0,1,0.3,1.7,0.9,2.3
		C15.8,347,16.7,347.3,17.7,347.3z"/>
	<path style="fill:#FFFFFF;" d="M45.8,317.4v6.9h4.7v5.3h-4.7v14.3c0,1.1,0.2,1.9,0.7,2.3c0.5,0.5,1.1,0.7,1.8,0.7
		c0.4,0,0.7,0,1-0.1c0.3,0,0.6-0.1,1-0.2l0.6,5.5c-0.8,0.3-1.5,0.5-2.2,0.6s-1.5,0.2-2.3,0.2c-2.6,0-4.6-0.7-6-2.2
		c-1.4-1.4-2.1-3.7-2.1-6.8v-14.3h-4.1v-5.3h4.1v-6.9H45.8z"/>
	<path style="fill:#FFFFFF;" d="M67.2,338.1c0-4.2,1.2-7.6,3.5-10.3c2.3-2.7,5.6-4,9.7-4c4.2,0,7.4,1.3,9.8,4
		c2.4,2.7,3.5,6.1,3.5,10.3v0.5c0,4.2-1.2,7.7-3.5,10.3c-2.3,2.7-5.6,4-9.7,4c-4.2,0-7.4-1.3-9.7-4c-2.3-2.7-3.5-6.1-3.5-10.3V338.1
		z M74.8,338.6c0,2.6,0.4,4.6,1.3,6.2c0.9,1.5,2.4,2.3,4.4,2.3c2,0,3.4-0.8,4.3-2.3c0.9-1.6,1.4-3.6,1.4-6.2v-0.5
		c0-2.5-0.5-4.5-1.4-6.1c-0.9-1.6-2.4-2.4-4.3-2.4c-2,0-3.4,0.8-4.3,2.4c-0.9,1.6-1.4,3.6-1.4,6.1V338.6z"/>
	<path style="fill:#FFFFFF;" d="M105.3,324.3l0.3,4c0.9-1.4,2.1-2.6,3.5-3.3c1.4-0.8,2.9-1.2,4.6-1.2c2.8,0,5.1,0.9,6.6,2.7
		c1.6,1.8,2.4,4.7,2.4,8.7v17.2h-7.6v-17.2c0-2-0.4-3.4-1.1-4.3c-0.7-0.8-1.8-1.3-3.2-1.3c-1.1,0-2.1,0.2-3,0.6
		c-0.9,0.4-1.6,1-2.1,1.8v20.3h-7.6v-28.1H105.3z"/>
	<path style="fill:#FFFFFF;" d="M137.5,317.4v6.9h4.7v5.3h-4.7v14.3c0,1.1,0.2,1.9,0.7,2.3c0.5,0.5,1.1,0.7,1.8,0.7
		c0.4,0,0.7,0,1-0.1c0.3,0,0.6-0.1,1-0.2l0.6,5.5c-0.8,0.3-1.5,0.5-2.2,0.6s-1.5,0.2-2.3,0.2c-2.6,0-4.6-0.7-6-2.2
		c-1.4-1.4-2.1-3.7-2.1-6.8v-14.3h-4.1v-5.3h4.1v-6.9H137.5z"/>
	<path style="fill:#FFFFFF;" d="M163.5,352.4c-0.3-0.6-0.5-1.3-0.7-2s-0.3-1.4-0.4-2.2c-0.8,1.4-1.8,2.5-3.1,3.4s-2.8,1.3-4.6,1.3
		c-2.9,0-5.2-0.8-6.8-2.3c-1.6-1.5-2.4-3.6-2.4-6.2c0-2.8,1.1-4.9,3.2-6.4c2.1-1.5,5.2-2.3,9.3-2.3h4.3v-2.2c0-1.3-0.4-2.4-1.1-3.1
		c-0.7-0.7-1.8-1.1-3.2-1.1c-1.2,0-2.2,0.3-2.8,0.9s-1,1.4-1,2.5h-7.3l-0.1-0.2c-0.1-2.4,0.9-4.4,3.1-6.1c2.2-1.7,5-2.6,8.6-2.6
		c3.4,0,6.1,0.8,8.2,2.5c2.1,1.7,3.1,4.1,3.1,7.3v11.6c0,1.3,0.1,2.6,0.3,3.7s0.5,2.3,0.9,3.5H163.5z M156.5,347.3
		c1.3,0,2.5-0.3,3.5-1s1.7-1.4,2.1-2.3v-4h-4.3c-1.6,0-2.8,0.4-3.6,1.2c-0.8,0.8-1.2,1.8-1.2,2.9c0,1,0.3,1.7,0.9,2.3
		C154.6,347,155.4,347.3,156.5,347.3z"/>
	<path style="fill:#FFFFFF;" d="M190.2,330.8l-2.8-0.1c-1.1,0-2.1,0.2-2.8,0.7c-0.7,0.5-1.3,1.1-1.7,2v19h-7.6v-28.1h7l0.3,4.2
		c0.7-1.5,1.5-2.6,2.6-3.4s2.3-1.2,3.6-1.2c0.4,0,0.7,0,1.1,0.1c0.3,0.1,0.6,0.1,1,0.2L190.2,330.8z"/>
	<path style="fill:#FFFFFF;" d="M202.1,317.6h-7.6v-5.7h7.6V317.6z M202.1,352.4h-7.6v-28.1h7.6V352.4z"/>
	<path style="fill:#FFFFFF;" d="M207.2,338.1c0-4.2,1.2-7.6,3.5-10.3c2.3-2.7,5.6-4,9.7-4c4.2,0,7.4,1.3,9.8,4
		c2.4,2.7,3.5,6.1,3.5,10.3v0.5c0,4.2-1.2,7.7-3.5,10.3s-5.6,4-9.7,4c-4.2,0-7.4-1.3-9.7-4c-2.3-2.7-3.5-6.1-3.5-10.3V338.1z
		 M214.7,338.6c0,2.6,0.4,4.6,1.3,6.2c0.9,1.5,2.4,2.3,4.4,2.3c2,0,3.4-0.8,4.3-2.3c0.9-1.6,1.4-3.6,1.4-6.2v-0.5
		c0-2.5-0.5-4.5-1.4-6.1c-0.9-1.6-2.4-2.4-4.3-2.4c-2,0-3.4,0.8-4.3,2.4c-0.9,1.6-1.4,3.6-1.4,6.1V338.6z"/>
	<path style="fill:#FFFFFF;" d="M276.9,339.1c0,4.2-1,7.5-2.9,10c-1.9,2.5-4.6,3.8-8,3.8c-1.5,0-2.8-0.3-3.9-0.8
		c-1.1-0.5-2.1-1.3-2.9-2.4v13.5h-7.6v-38.9h6.8l0.4,3.3c0.8-1.2,1.8-2.2,3-2.8s2.5-1,4.1-1c3.5,0,6.2,1.4,8.1,4.1
		c1.9,2.7,2.9,6.3,2.9,10.7V339.1z M269.3,338.6c0-2.6-0.4-4.8-1.3-6.4c-0.9-1.6-2.2-2.5-4-2.5c-1.1,0-2.1,0.2-2.9,0.7
		c-0.8,0.5-1.4,1.1-1.9,2v12.3c0.5,0.8,1.1,1.4,1.9,1.8c0.8,0.4,1.8,0.6,3,0.6c1.8,0,3.2-0.7,4-2.2s1.3-3.4,1.3-5.8V338.6z"/>
	<path style="fill:#FFFFFF;" d="M289.6,352.4H282v-40.5h7.6V352.4z"/>
	<path style="fill:#FFFFFF;" d="M312.3,352.4c-0.3-0.6-0.5-1.3-0.7-2c-0.2-0.7-0.3-1.4-0.4-2.2c-0.8,1.4-1.8,2.5-3.1,3.4
		s-2.8,1.3-4.6,1.3c-2.9,0-5.2-0.8-6.8-2.3c-1.6-1.5-2.4-3.6-2.4-6.2c0-2.8,1.1-4.9,3.2-6.4c2.1-1.5,5.2-2.3,9.3-2.3h4.3v-2.2
		c0-1.3-0.4-2.4-1.1-3.1s-1.8-1.1-3.2-1.1c-1.2,0-2.2,0.3-2.8,0.9s-1,1.4-1,2.5h-7.3l-0.1-0.2c-0.1-2.4,0.9-4.4,3.1-6.1
		c2.2-1.7,5-2.6,8.6-2.6c3.4,0,6.1,0.8,8.2,2.5s3.1,4.1,3.1,7.3v11.6c0,1.3,0.1,2.6,0.3,3.7c0.2,1.2,0.5,2.3,0.9,3.5H312.3z
		 M305.4,347.3c1.3,0,2.5-0.3,3.5-1c1-0.7,1.7-1.4,2.1-2.3v-4h-4.3c-1.6,0-2.8,0.4-3.6,1.2c-0.8,0.8-1.2,1.8-1.2,2.9
		c0,1,0.3,1.7,0.9,2.3C303.5,347,304.3,347.3,305.4,347.3z"/>
	<path style="fill:#FFFFFF;" d="M336.1,347.1c1.3,0,2.4-0.4,3.1-1.2c0.8-0.8,1.2-1.8,1.2-3.2h6.9l0.1,0.2c0.1,2.8-1,5.2-3.2,7.1
		c-2.2,1.9-4.9,2.9-8.1,2.9c-4.2,0-7.4-1.3-9.6-4c-2.3-2.7-3.4-6.1-3.4-10.2V338c0-4.1,1.1-7.5,3.4-10.2c2.3-2.7,5.5-4,9.6-4
		c3.4,0,6.2,1,8.3,3c2.1,2,3.1,4.6,3,7.8l-0.1,0.2h-6.9c0-1.5-0.4-2.7-1.2-3.6c-0.8-1-1.8-1.4-3.2-1.4c-2,0-3.3,0.8-4.2,2.3
		c-0.8,1.6-1.2,3.6-1.2,6v0.8c0,2.5,0.4,4.5,1.2,6C332.7,346.3,334.1,347.1,336.1,347.1z"/>
	<path style="fill:#FFFFFF;" d="M363.9,352.9c-4.2,0-7.5-1.3-9.8-3.9c-2.4-2.6-3.5-5.9-3.5-9.9v-1c0-4.2,1.1-7.6,3.4-10.3
		c2.3-2.7,5.4-4,9.4-4c3.8,0,6.7,1.2,8.7,3.5c2,2.3,3,5.4,3,9.3v3.9h-16.7l-0.1,0.2c0.1,1.9,0.7,3.5,1.8,4.7c1,1.2,2.6,1.8,4.7,1.8
		c1.7,0,3.1-0.2,4.3-0.5c1.2-0.3,2.4-0.9,3.7-1.6l2.1,4.7c-1.1,0.9-2.6,1.7-4.6,2.3C368.3,352.6,366.2,352.9,363.9,352.9z
		 M363.4,329.6c-1.5,0-2.7,0.5-3.5,1.6s-1.3,2.4-1.5,4.2l0.1,0.1h9.2v-0.6c0-1.6-0.3-2.9-1-3.9C366,330.1,364.9,329.6,363.4,329.6z"
		/>
</g>
</svg>
