<?xml version="1.0" encoding="utf-8"?>
<!-- Generator: Adobe Illustrator 21.0.2, SVG Export Plug-In . SVG Version: 6.00 Build 0)  -->
<svg version="1.1" id="Layer_1" xmlns="http://www.w3.org/2000/svg" xmlns:xlink="http://www.w3.org/1999/xlink" x="0px" y="0px"
	 viewBox="0 0 396.6 254.4" style="enable-background:new 0 0 396.6 254.4;" xml:space="preserve">
<style type="text/css">
	.st0{fill:#FFFFFF;}
</style>
<g>
	<path class="st0" d="M17.7,53.5v27.4H2.5V5.4h28.9c8.7,0,15.5,2.2,20.5,6.6c5,4.4,7.5,10.2,7.5,17.5c0,7.2-2.5,13-7.5,17.4
		c-5,4.4-11.8,6.6-20.5,6.6H17.7z M17.7,41.8h13.7c4.2,0,7.4-1.1,9.6-3.4c2.2-2.3,3.3-5.2,3.3-8.8c0-3.6-1.1-6.6-3.2-9
		c-2.2-2.4-5.4-3.6-9.6-3.6H17.7V41.8z"/>
	<path class="st0" d="M84.9,80.8H69.8V0h15.1V80.8z"/>
	<path class="st0" d="M130.4,80.8c-0.6-1.3-1-2.6-1.4-4c-0.4-1.4-0.7-2.9-0.9-4.4c-1.6,2.7-3.6,5-6.2,6.8c-2.6,1.8-5.6,2.7-9.1,2.7
		c-5.9,0-10.4-1.5-13.6-4.5c-3.2-3-4.8-7.1-4.8-12.4c0-5.5,2.1-9.8,6.3-12.8c4.2-3,10.4-4.5,18.5-4.5h8.5v-4.5
		c0-2.7-0.7-4.8-2.1-6.3s-3.5-2.2-6.3-2.2c-2.5,0-4.3,0.6-5.7,1.8c-1.3,1.2-2,2.8-2,4.9H97.2l-0.1-0.3c-0.2-4.7,1.8-8.8,6.2-12.3
		c4.4-3.4,10.1-5.2,17.1-5.2c6.7,0,12.2,1.7,16.4,5.1c4.2,3.4,6.2,8.2,6.2,14.6v23.2c0,2.6,0.2,5.1,0.6,7.4c0.4,2.3,1,4.6,1.9,6.9
		H130.4z M116.6,70.7c2.6,0,5-0.7,7-2c2.1-1.3,3.5-2.8,4.3-4.6v-7.9h-8.5c-3.2,0-5.6,0.8-7.3,2.4c-1.6,1.6-2.5,3.5-2.5,5.9
		c0,1.9,0.6,3.4,1.8,4.5C112.7,70.2,114.4,70.7,116.6,70.7z"/>
	<path class="st0" d="M177.8,70.3c2.6,0,4.7-0.8,6.3-2.4c1.6-1.6,2.3-3.7,2.3-6.3h13.8l0.1,0.3c0.1,5.7-2,10.4-6.3,14.2
		c-4.4,3.8-9.7,5.7-16.2,5.7c-8.3,0-14.7-2.7-19.2-8c-4.5-5.3-6.8-12.1-6.8-20.3v-1.6c0-8.2,2.3-15,6.8-20.3c4.5-5.3,10.9-8,19.1-8
		c6.8,0,12.4,2,16.5,5.9c4.2,3.9,6.2,9.1,6.1,15.5l-0.1,0.3h-13.8c0-2.9-0.8-5.3-2.3-7.2c-1.5-1.9-3.7-2.9-6.4-2.9
		c-3.9,0-6.7,1.6-8.3,4.7c-1.6,3.1-2.5,7.1-2.5,12v1.6c0,5,0.8,9,2.5,12.1C171,68.8,173.8,70.3,177.8,70.3z"/>
	<path class="st0" d="M233.4,81.9c-8.4,0-14.9-2.6-19.6-7.7c-4.7-5.1-7-11.7-7-19.8v-2.1c0-8.4,2.3-15.3,6.8-20.6
		c4.6-5.4,10.8-8,18.8-8c7.5,0,13.3,2.3,17.3,6.9c4,4.6,6,10.8,6,18.6v7.8h-33.4l-0.2,0.3c0.2,3.8,1.4,6.9,3.5,9.3
		c2.1,2.4,5.2,3.6,9.3,3.6c3.4,0,6.3-0.3,8.6-1c2.4-0.7,4.8-1.7,7.3-3.2l4.1,9.3c-2.2,1.8-5.3,3.4-9.1,4.6
		C242.1,81.3,237.9,81.9,233.4,81.9z M232.4,35.4c-3,0-5.4,1-7,3.1c-1.6,2.1-2.6,4.9-3,8.3l0.1,0.3H241V46c0-3.3-0.7-5.9-2-7.7
		C237.6,36.3,235.4,35.4,232.4,35.4z"/>
	<path class="st0" d="M324.1,80.8c-0.6-1.3-1-2.6-1.4-4c-0.4-1.4-0.7-2.9-0.9-4.4c-1.6,2.7-3.6,5-6.2,6.8c-2.6,1.8-5.6,2.7-9.1,2.7
		c-5.9,0-10.4-1.5-13.6-4.5c-3.2-3-4.8-7.1-4.8-12.4c0-5.5,2.1-9.8,6.3-12.8c4.2-3,10.4-4.5,18.5-4.5h8.5v-4.5
		c0-2.7-0.7-4.8-2.1-6.3s-3.5-2.2-6.3-2.2c-2.5,0-4.3,0.6-5.7,1.8c-1.3,1.2-2,2.8-2,4.9h-14.6l-0.1-0.3c-0.2-4.7,1.8-8.8,6.2-12.3
		c4.4-3.4,10.1-5.2,17.1-5.2c6.7,0,12.2,1.7,16.4,5.1c4.2,3.4,6.2,8.2,6.2,14.6v23.2c0,2.6,0.2,5.1,0.6,7.4c0.4,2.3,1,4.6,1.9,6.9
		H324.1z M310.3,70.7c2.6,0,5-0.7,7-2c2.1-1.3,3.5-2.8,4.3-4.6v-7.9h-8.5c-3.2,0-5.6,0.8-7.3,2.4c-1.6,1.6-2.5,3.5-2.5,5.9
		c0,1.9,0.6,3.4,1.8,4.5C306.4,70.2,308.1,70.7,310.3,70.7z"/>
	<path class="st0" d="M382.4,72.6c-1.7,3-3.9,5.3-6.6,6.9c-2.7,1.6-5.8,2.4-9.3,2.4c-5.9,0-10.5-2-13.9-6c-3.3-4-5-10.2-5-18.7V24.8
		h15.1v32.6c0,4.9,0.7,8.3,2,10.1c1.3,1.8,3.4,2.7,6.2,2.7c2.4,0,4.5-0.4,6.2-1.2c1.7-0.8,3.1-1.9,4.3-3.4V24.8h15.1v56.1H384
		L382.4,72.6z"/>
	<path class="st0" d="M70,157.2v27.4H54.9v-75.5h28.9c8.7,0,15.5,2.2,20.5,6.6c5,4.4,7.5,10.2,7.5,17.5c0,7.2-2.5,13-7.5,17.4
		c-5,4.4-11.8,6.6-20.5,6.6H70z M70,145.5h13.7c4.2,0,7.4-1.1,9.6-3.4c2.2-2.3,3.3-5.2,3.3-8.8c0-3.6-1.1-6.6-3.2-9
		c-2.2-2.4-5.4-3.6-9.6-3.6H70V145.5z"/>
	<path class="st0" d="M137.3,184.5h-15.1v-80.8h15.1V184.5z"/>
	<path class="st0" d="M182.8,184.5c-0.6-1.3-1-2.6-1.4-4c-0.4-1.4-0.7-2.9-0.9-4.4c-1.6,2.7-3.6,5-6.2,6.8c-2.6,1.8-5.6,2.7-9.1,2.7
		c-5.9,0-10.4-1.5-13.6-4.5c-3.2-3-4.8-7.1-4.8-12.4c0-5.5,2.1-9.8,6.3-12.8c4.2-3,10.4-4.5,18.5-4.5h8.5V147c0-2.7-0.7-4.8-2.1-6.3
		c-1.4-1.5-3.5-2.2-6.3-2.2c-2.5,0-4.3,0.6-5.7,1.8c-1.3,1.2-2,2.8-2,4.9h-14.6l-0.1-0.3c-0.2-4.7,1.8-8.8,6.2-12.3
		c4.4-3.4,10.1-5.2,17.1-5.2c6.7,0,12.2,1.7,16.4,5.1c4.2,3.4,6.2,8.2,6.2,14.6v23.2c0,2.6,0.2,5.1,0.6,7.4c0.4,2.3,1,4.6,1.9,6.9
		H182.8z M169,174.4c2.6,0,5-0.7,7-2c2.1-1.3,3.5-2.8,4.3-4.6V160h-8.5c-3.2,0-5.6,0.8-7.3,2.4c-1.6,1.6-2.5,3.5-2.5,5.9
		c0,1.9,0.6,3.4,1.8,4.5C165.1,173.9,166.8,174.4,169,174.4z"/>
	<path class="st0" d="M222.7,115h-15.1v-11.4h15.1V115z M222.7,184.5h-15.1v-56.1h15.1V184.5z"/>
	<path class="st0" d="M265.4,169c0-1.7-0.8-3.1-2.4-4.3c-1.6-1.2-4.6-2.2-8.9-3.1c-6.6-1.3-11.5-3.3-15-6c-3.4-2.7-5.1-6.3-5.1-10.8
		c0-4.8,2-8.9,6.1-12.3c4.1-3.4,9.5-5.1,16.3-5.1c7.1,0,12.8,1.7,17,5.1c4.3,3.4,6.3,7.6,6.1,12.6l-0.1,0.3h-14.6
		c0-2.2-0.7-4.1-2.2-5.5c-1.5-1.4-3.5-2.1-6.3-2.1c-2.4,0-4.3,0.6-5.8,1.8c-1.4,1.2-2.1,2.7-2.1,4.5c0,1.7,0.7,3.1,2.2,4.2
		c1.5,1.1,4.4,2.1,8.9,2.9c6.9,1.4,12,3.4,15.4,6.1c3.4,2.7,5.1,6.4,5.1,11.1c0,5-2.2,9.2-6.5,12.4c-4.3,3.2-10,4.8-17.1,4.8
		c-7.5,0-13.4-1.9-17.7-5.7c-4.3-3.8-6.4-8.1-6.2-12.9l0.1-0.3h13.8c0.1,3,1.1,5.2,3,6.5c1.9,1.3,4.3,2,7.3,2c2.8,0,4.9-0.6,6.4-1.7
		C264.7,172.4,265.4,170.9,265.4,169z"/>
	<path class="st0" d="M305.8,115h-15.1v-11.4h15.1V115z M305.8,184.5h-15.1v-56.1h15.1V184.5z"/>
	<path class="st0" d="M347.7,141.5l-5.5-0.2c-2.2,0-4.1,0.5-5.5,1.4c-1.5,0.9-2.6,2.2-3.3,3.9v37.9h-15.1v-56.1h14l0.7,8.3
		c1.3-2.9,3-5.2,5.1-6.9c2.1-1.6,4.5-2.5,7.2-2.5c0.8,0,1.5,0.1,2.1,0.2c0.6,0.1,1.3,0.3,1.9,0.4L347.7,141.5z"/>
	<g>
		<path class="st0" d="M13.8,254c-0.2-0.5-0.4-1-0.5-1.6c-0.2-0.5-0.3-1.1-0.3-1.7c-0.6,1-1.4,1.9-2.4,2.6s-2.2,1-3.5,1
			c-2.3,0-4-0.6-5.2-1.7c-1.2-1.2-1.8-2.7-1.8-4.8c0-2.1,0.8-3.7,2.4-4.9c1.6-1.2,4-1.7,7.1-1.7h3.3v-1.7c0-1-0.3-1.8-0.8-2.4
			c-0.5-0.6-1.4-0.9-2.4-0.9c-0.9,0-1.7,0.2-2.2,0.7c-0.5,0.5-0.8,1.1-0.8,1.9H1l0-0.1c-0.1-1.8,0.7-3.4,2.4-4.7s3.9-2,6.6-2
			c2.6,0,4.7,0.7,6.3,2s2.4,3.2,2.4,5.6v8.9c0,1,0.1,2,0.2,2.8s0.4,1.8,0.7,2.6H13.8z M12.5,228.5h-5l-5.4-5.2l0-0.1h6.5L12.5,228.5
			z M8.5,250.1c1,0,1.9-0.3,2.7-0.8c0.8-0.5,1.3-1.1,1.6-1.8v-3H9.6c-1.2,0-2.2,0.3-2.8,0.9s-0.9,1.4-0.9,2.3c0,0.7,0.2,1.3,0.7,1.7
			C7,249.9,7.6,250.1,8.5,250.1z"/>
		<path class="st0" d="M39.3,254h-5.8v-31.1h5.8V254z"/>
		<path class="st0" d="M56.8,254c-0.2-0.5-0.4-1-0.5-1.6c-0.2-0.5-0.3-1.1-0.3-1.7c-0.6,1-1.4,1.9-2.4,2.6c-1,0.7-2.2,1-3.5,1
			c-2.3,0-4-0.6-5.2-1.7c-1.2-1.2-1.8-2.7-1.8-4.8c0-2.1,0.8-3.7,2.4-4.9c1.6-1.2,4-1.7,7.1-1.7h3.3v-1.7c0-1-0.3-1.8-0.8-2.4
			c-0.5-0.6-1.4-0.9-2.4-0.9c-0.9,0-1.7,0.2-2.2,0.7c-0.5,0.5-0.8,1.1-0.8,1.9H44l0-0.1c-0.1-1.8,0.7-3.4,2.4-4.7s3.9-2,6.6-2
			c2.6,0,4.7,0.7,6.3,2s2.4,3.2,2.4,5.6v8.9c0,1,0.1,2,0.2,2.8s0.4,1.8,0.7,2.6H56.8z M51.5,250.1c1,0,1.9-0.3,2.7-0.8
			c0.8-0.5,1.3-1.1,1.6-1.8v-3h-3.3c-1.2,0-2.2,0.3-2.8,0.9c-0.6,0.6-0.9,1.4-0.9,2.3c0,0.7,0.2,1.3,0.7,1.7
			C50,249.9,50.6,250.1,51.5,250.1z"/>
		<path class="st0" d="M82.4,243.4V254h-5.8v-29h11.1c3.3,0,6,0.8,7.9,2.5c1.9,1.7,2.9,3.9,2.9,6.7s-1,5-2.9,6.7
			c-1.9,1.7-4.5,2.5-7.9,2.5H82.4z M82.4,239h5.3c1.6,0,2.8-0.4,3.7-1.3c0.8-0.9,1.3-2,1.3-3.4c0-1.4-0.4-2.5-1.2-3.5
			c-0.8-0.9-2.1-1.4-3.7-1.4h-5.3V239z"/>
		<path class="st0" d="M108.2,254h-5.8v-31.1h5.8V254z"/>
		<path class="st0" d="M125.7,254c-0.2-0.5-0.4-1-0.5-1.6c-0.2-0.5-0.3-1.1-0.3-1.7c-0.6,1-1.4,1.9-2.4,2.6c-1,0.7-2.2,1-3.5,1
			c-2.3,0-4-0.6-5.2-1.7c-1.2-1.2-1.8-2.7-1.8-4.8c0-2.1,0.8-3.7,2.4-4.9c1.6-1.2,4-1.7,7.1-1.7h3.3v-1.7c0-1-0.3-1.8-0.8-2.4
			c-0.5-0.6-1.4-0.9-2.4-0.9c-0.9,0-1.7,0.2-2.2,0.7c-0.5,0.5-0.8,1.1-0.8,1.9H113l0-0.1c-0.1-1.8,0.7-3.4,2.4-4.7
			c1.7-1.3,3.9-2,6.6-2c2.6,0,4.7,0.7,6.3,2s2.4,3.2,2.4,5.6v8.9c0,1,0.1,2,0.2,2.8s0.4,1.8,0.7,2.6H125.7z M120.4,250.1
			c1,0,1.9-0.3,2.7-0.8c0.8-0.5,1.3-1.1,1.6-1.8v-3h-3.3c-1.2,0-2.2,0.3-2.8,0.9s-0.9,1.4-0.9,2.3c0,0.7,0.2,1.3,0.7,1.7
			C118.9,249.9,119.6,250.1,120.4,250.1z"/>
		<path class="st0" d="M143.9,249.9c1,0,1.8-0.3,2.4-0.9c0.6-0.6,0.9-1.4,0.9-2.4h5.3l0,0.1c0.1,2.2-0.8,4-2.4,5.5
			c-1.7,1.5-3.7,2.2-6.2,2.2c-3.2,0-5.7-1-7.4-3.1c-1.7-2-2.6-4.6-2.6-7.8v-0.6c0-3.2,0.9-5.8,2.6-7.8c1.7-2.1,4.2-3.1,7.4-3.1
			c2.6,0,4.7,0.8,6.4,2.3c1.6,1.5,2.4,3.5,2.3,6l0,0.1h-5.3c0-1.1-0.3-2-0.9-2.8c-0.6-0.7-1.4-1.1-2.5-1.1c-1.5,0-2.6,0.6-3.2,1.8
			c-0.6,1.2-0.9,2.7-0.9,4.6v0.6c0,1.9,0.3,3.5,0.9,4.6C141.3,249.3,142.4,249.9,143.9,249.9z"/>
		<path class="st0" d="M165.3,254.4c-3.2,0-5.7-1-7.5-3c-1.8-2-2.7-4.5-2.7-7.6V243c0-3.2,0.9-5.9,2.6-7.9c1.8-2.1,4.2-3.1,7.2-3.1
			c2.9,0,5.1,0.9,6.7,2.7c1.5,1.8,2.3,4.2,2.3,7.2v3h-12.8L161,245c0.1,1.5,0.5,2.7,1.3,3.6c0.8,0.9,2,1.4,3.6,1.4
			c1.3,0,2.4-0.1,3.3-0.4c0.9-0.3,1.8-0.7,2.8-1.2l1.6,3.6c-0.9,0.7-2,1.3-3.5,1.8C168.7,254.1,167,254.4,165.3,254.4z M164.9,236.5
			c-1.2,0-2.1,0.4-2.7,1.2c-0.6,0.8-1,1.9-1.1,3.2l0,0.1h7.1v-0.4c0-1.3-0.3-2.3-0.8-3C166.9,236.9,166.1,236.5,164.9,236.5z"/>
		<path class="st0" d="M186.6,243.4c0-3.4,0.7-6.1,2.2-8.2s3.5-3.1,6.2-3.1c1.1,0,2,0.2,2.9,0.7c0.9,0.5,1.6,1.1,2.3,2v-11.8h5.8
			V254h-5l-0.5-2.6c-0.7,1-1.5,1.8-2.4,2.3c-0.9,0.5-2,0.8-3.2,0.8c-2.6,0-4.7-1-6.2-2.9c-1.5-1.9-2.2-4.5-2.2-7.7V243.4z
			 M192.4,243.8c0,1.9,0.3,3.4,1,4.5c0.6,1.1,1.7,1.6,3.1,1.6c0.8,0,1.6-0.2,2.2-0.5c0.6-0.3,1.1-0.8,1.5-1.5v-9.2
			c-0.4-0.7-0.9-1.2-1.5-1.6c-0.6-0.4-1.3-0.6-2.2-0.6c-1.4,0-2.5,0.6-3.1,1.9s-1,2.9-1,4.9V243.8z"/>
		<path class="st0" d="M219.8,254.4c-3.2,0-5.7-1-7.5-3c-1.8-2-2.7-4.5-2.7-7.6V243c0-3.2,0.9-5.9,2.6-7.9c1.8-2.1,4.2-3.1,7.2-3.1
			c2.9,0,5.1,0.9,6.7,2.7c1.5,1.8,2.3,4.2,2.3,7.2v3h-12.8l-0.1,0.1c0.1,1.5,0.5,2.7,1.3,3.6c0.8,0.9,2,1.4,3.6,1.4
			c1.3,0,2.4-0.1,3.3-0.4c0.9-0.3,1.8-0.7,2.8-1.2l1.6,3.6c-0.9,0.7-2,1.3-3.5,1.8C223.2,254.1,221.6,254.4,219.8,254.4z
			 M219.4,236.5c-1.2,0-2.1,0.4-2.7,1.2c-0.6,0.8-1,1.9-1.1,3.2l0,0.1h7.1v-0.4c0-1.3-0.3-2.3-0.8-3
			C221.4,236.9,220.6,236.5,219.4,236.5z"/>
		<path class="st0" d="M248.1,254h-5.8v-31.1h5.8V254z"/>
		<path class="st0" d="M258.7,230.1l-2,5.7h-2.9V225h4.9V230.1z"/>
		<path class="st0" d="M287.9,242.1c0,3.6-1.1,6.5-3.4,8.8c-2.2,2.3-5.2,3.5-8.8,3.5c-3.6,0-6.5-1.2-8.7-3.5s-3.3-5.3-3.3-8.8v-5.2
			c0-3.5,1.1-6.5,3.3-8.8c2.2-2.3,5.1-3.5,8.7-3.5c3.6,0,6.5,1.2,8.8,3.5c2.3,2.3,3.4,5.3,3.4,8.8V242.1z M282.1,236.8
			c0-2.3-0.6-4.1-1.7-5.6s-2.7-2.2-4.7-2.2c-2,0-3.5,0.7-4.6,2.2c-1.1,1.4-1.6,3.3-1.6,5.6v5.3c0,2.3,0.6,4.2,1.7,5.6
			c1.1,1.4,2.6,2.2,4.6,2.2c2,0,3.5-0.7,4.7-2.2s1.7-3.3,1.7-5.6V236.8z"/>
		<path class="st0" d="M297.4,232.4l0.3,3.1c0.7-1.1,1.6-2,2.6-2.6s2.2-0.9,3.5-0.9c2.2,0,3.9,0.7,5.1,2.1c1.2,1.4,1.8,3.6,1.8,6.6
			V254h-5.8v-13.2c0-1.5-0.3-2.6-0.8-3.3c-0.5-0.6-1.3-1-2.4-1c-0.9,0-1.6,0.2-2.3,0.5c-0.7,0.3-1.2,0.8-1.6,1.3V254h-5.8v-21.6
			H297.4z"/>
		<path class="st0" d="M322,227.1v5.3h3.6v4.1H322v11c0,0.8,0.2,1.4,0.5,1.8c0.4,0.4,0.8,0.5,1.4,0.5c0.3,0,0.6,0,0.8-0.1
			c0.2,0,0.5-0.1,0.8-0.2l0.5,4.2c-0.6,0.2-1.2,0.3-1.7,0.4c-0.6,0.1-1.2,0.1-1.8,0.1c-2,0-3.5-0.6-4.6-1.7s-1.6-2.8-1.6-5.2v-11
			h-3.1v-4.1h3.1v-5.3H322z"/>
		<path class="st0" d="M342,254c-0.2-0.5-0.4-1-0.5-1.6c-0.2-0.5-0.3-1.1-0.3-1.7c-0.6,1-1.4,1.9-2.4,2.6c-1,0.7-2.2,1-3.5,1
			c-2.3,0-4-0.6-5.2-1.7c-1.2-1.2-1.8-2.7-1.8-4.8c0-2.1,0.8-3.7,2.4-4.9c1.6-1.2,4-1.7,7.1-1.7h3.3v-1.7c0-1-0.3-1.8-0.8-2.4
			c-0.5-0.6-1.4-0.9-2.4-0.9c-0.9,0-1.7,0.2-2.2,0.7c-0.5,0.5-0.8,1.1-0.8,1.9h-5.6l0-0.1c-0.1-1.8,0.7-3.4,2.4-4.7
			c1.7-1.3,3.9-2,6.6-2c2.6,0,4.7,0.7,6.3,2c1.6,1.3,2.4,3.2,2.4,5.6v8.9c0,1,0.1,2,0.2,2.8s0.4,1.8,0.7,2.6H342z M336.7,250.1
			c1,0,1.9-0.3,2.7-0.8c0.8-0.5,1.3-1.1,1.6-1.8v-3h-3.3c-1.2,0-2.2,0.3-2.8,0.9c-0.6,0.6-0.9,1.4-0.9,2.3c0,0.7,0.2,1.3,0.7,1.7
			C335.2,249.9,335.8,250.1,336.7,250.1z"/>
		<path class="st0" d="M362.5,237.4l-2.1-0.1c-0.9,0-1.6,0.2-2.1,0.5c-0.6,0.4-1,0.9-1.3,1.5V254h-5.8v-21.6h5.4l0.3,3.2
			c0.5-1.1,1.2-2,2-2.6c0.8-0.6,1.7-0.9,2.8-0.9c0.3,0,0.6,0,0.8,0.1c0.2,0,0.5,0.1,0.7,0.2L362.5,237.4z"/>
		<path class="st0" d="M371.7,227.2h-5.8v-4.4h5.8V227.2z M371.7,254h-5.8v-21.6h5.8V254z"/>
		<path class="st0" d="M375.5,243c0-3.2,0.9-5.8,2.7-7.9c1.8-2.1,4.3-3.1,7.4-3.1c3.2,0,5.7,1,7.5,3.1c1.8,2,2.7,4.7,2.7,7.9v0.4
			c0,3.2-0.9,5.9-2.7,7.9c-1.8,2-4.3,3.1-7.5,3.1c-3.2,0-5.7-1-7.5-3.1c-1.8-2-2.7-4.7-2.7-7.9V243z M381.3,243.4c0,2,0.3,3.5,1,4.7
			c0.7,1.2,1.8,1.8,3.3,1.8c1.5,0,2.6-0.6,3.3-1.8c0.7-1.2,1-2.8,1-4.7V243c0-1.9-0.4-3.5-1.1-4.7c-0.7-1.2-1.8-1.8-3.3-1.8
			c-1.5,0-2.6,0.6-3.3,1.8c-0.7,1.2-1,2.8-1,4.7V243.4z"/>
	</g>
</g>
</svg>
