<?xml version="1.0" encoding="utf-8"?>
<!-- Generator: Adobe Illustrator 21.0.2, SVG Export Plug-In . SVG Version: 6.00 Build 0)  -->
<svg version="1.1" id="Layer_1" xmlns="http://www.w3.org/2000/svg" xmlns:xlink="http://www.w3.org/1999/xlink" x="0px" y="0px"
	 viewBox="0 0 388.2 60.6" style="enable-background:new 0 0 388.2 60.6;" xml:space="preserve">
<path style="fill:#FFFFFF;" d="M97.1,16.7c-7.2,0-15.6,5.5-16.5,13.4c-1.8-7.7-8.6-13.4-16.8-13.4c-9.5,0-17.3,7.7-17.3,17.3
	c0,9.5,7.7,17.3,17.3,17.3c8.1,0,15-5.6,16.8-13.2v0.1v11.9h5.9V46V32.9c0-6,5.5-10.7,10.6-10.7s9.8,4.8,9.8,10.8v13.3v3.9h6
	l0.1-17.8C112.9,23.3,104.9,16.7,97.1,16.7z M63.7,45.6c-6.2,0-11.2-5.2-11.2-11.6s5-11.6,11.2-11.6S74.9,27.6,74.9,34
	C74.8,40.4,69.8,45.6,63.7,45.6z"/>
<path style="fill:#FFFFFF;" d="M171.3,20.3v-2.9h-6v32.8h6V34.7c0.6-13,10.3-11,10.3-11v-6.5C181.6,17.2,175,16.4,171.3,20.3z"/>
<path style="fill:#FFFFFF;" d="M144.5,51.3c4.3,0,8.2-1.6,11.2-4.1v2.9h6v-16c0-2.6-0.6-5.1-1.6-7.3c-2.7-5.9-8.7-10-15.7-10
	c-9.5,0-17.3,7.7-17.3,17.3c0,4,1,7.4,3.3,10.4c-7.4,0-7.1-7.3-7.1-7.3V23.1h4.5v-5.9h-4.5v-10h-6v5.4c0,4.3-4.5,4.8-4.5,4.8h-1.9
	v5.7h6.4v14.7c0,0-0.7,16.2,19.4,11.7C136.9,49.5,139.1,51.3,144.5,51.3z M144.4,45.6c-6.2,0-11.2-5.2-11.2-11.6s5-11.6,11.2-11.6
	s11.3,5.2,11.3,11.6S150.6,45.6,144.4,45.6z"/>
<path style="fill:#FFFFFF;" d="M335.7,45.6c-6.2,0-11.2-5.2-11.2-11.6s5-11.6,11.2-11.6c4.2,0,7.9,2.5,9.8,6.1h6.6
	c-2.3-6.9-8.8-11.8-16.4-11.8c-9.5,0-17.3,7.7-17.3,17.3c0,9.5,7.7,17.3,17.3,17.3c8.6,0,15.7-6.3,17-14.4h-6.3
	C345.3,41.9,340.9,45.6,335.7,45.6z"/>
<path style="fill:#FFFFFF;" d="M206.6,16.8c-8.7,0-15.8,6.4-17.1,14.7V17.2h-6v32.9h6V36.7c1.3,8.3,8.4,14.7,17.1,14.7
	c9.5,0,17.3-7.7,17.3-17.3C223.9,24.5,216.2,16.8,206.6,16.8z M206.6,45.6c-6.2,0-11.2-5.2-11.2-11.6s5-11.6,11.2-11.6
	s11.2,5.2,11.2,11.6C217.7,40.4,212.7,45.6,206.6,45.6z"/>
<rect x="183.6" y="7" style="fill:#FFFFFF;" width="6" height="7.7"/>
<path style="fill:#FFFFFF;" d="M316.2,26.8c-2.7-5.9-8.7-10-15.7-10c-8.6,0-15.7,6.2-17,14.4V0h-6v31.2c-1.4-8.2-8.5-14.4-17-14.4
	c-4.3,0-8.3,1.6-11.3,4.2l0,0c-0.1,0-0.1,0.1-0.2,0.1c-0.1,0.1-0.2,0.2-0.3,0.3c-0.1,0.1-0.2,0.2-0.3,0.3c-0.1,0.1-0.2,0.2-0.3,0.3
	c-0.1,0.1-0.2,0.2-0.3,0.3c-0.1,0.1-0.2,0.2-0.3,0.3c-0.1,0.1-0.2,0.2-0.3,0.4c-0.1,0.1-0.1,0.2-0.2,0.2c-0.1,0.2-0.2,0.3-0.4,0.5
	c0,0,0,0.1-0.1,0.1c-1,1.3-1.8,2.8-2.3,4.3l0,0c-0.7,1.9-1.1,3.8-1.1,5.9v26.5h6V47.1l0,0c3,2.6,7,4.2,11.3,4.2
	c8.6,0,15.7-6.2,17-14.4v13.2h6V36.9c1.4,8.2,8.5,14.4,17,14.4c4.3,0,8.2-1.6,11.2-4.1v2.9h6v-16C317.8,31.5,317.2,29,316.2,26.8z
	 M260.4,45.6c-6.2,0-11.2-5.2-11.2-11.6s5-11.6,11.2-11.6c6.2,0,11.2,5.2,11.2,11.6S266.6,45.6,260.4,45.6z M300.4,45.6
	c-6.2,0-11.2-5.2-11.2-11.6s5-11.6,11.2-11.6s11.3,5.2,11.3,11.6C311.7,40.4,306.6,45.6,300.4,45.6z"/>
<path style="fill:#FFFFFF;" d="M388.1,36.3c0.1-0.7,0.2-1.5,0.2-2.3c0-1.3-0.1-2.5-0.4-3.7c-1.7-7.8-8.6-13.6-16.9-13.6
	s-15.2,5.8-16.9,13.6c-0.3,1.2-0.4,2.4-0.4,3.7c0,0.8,0.1,1.5,0.2,2.3c1.1,8.5,8.3,15,17.1,15c7.9,0,14.6-5.4,16.6-12.7h-6.5
	c-1.7,4.1-5.6,7-10.2,7c-5.4,0-9.9-4-10.9-9.3h21.9H388.1z M359.7,30.3c1.5-4.6,5.7-7.8,10.6-7.8s9.1,3.3,10.6,7.8H359.7z"/>
<path style="fill:#FFFFFF;" d="M17.5,18.2c0,0,9.1-4.4,17.4,2.9c0,0,1.7,9.7-6.5,16c0,0-0.7,9.9-10.9,13.6c0,0-9.5-3.9-10.8-13.5
	c0,0-7.8-5-6.5-16.6C0.1,20.5,8.7,14.1,17.5,18.2z M17.5,20c0,0-7-4.2-15.8,1.5c0,0-1.3,9.3,6.5,14.7c0,0,0.2,7.6,9.2,12.7
	c0,0,8.4-2.8,9.4-12.7c0,0,7.2-4.2,6.5-14.3C33.3,21.9,26.5,15.8,17.5,20z"/>
<path style="fill:#FFFFFF;" d="M17.5,21.9c8.1-4.2,14.1,0.9,14.1,0.9c0.4,8.8-6.4,12.4-6.4,12.4c-0.4,9-7.8,11.7-7.8,11.7
	c-7.8-4.5-7.6-11.6-7.6-11.6c-7.5-4.7-6.5-12.8-6.5-12.8C11,17.7,17.5,21.9,17.5,21.9z M4.8,23.4c0,0-0.6,6.9,6.5,11
	c0,0-0.4,7,6.1,10.7c0,0,6.2-2.4,6.3-10.8c0,0,6.5-3,6.4-10.8c0,0-5.3-4.2-12.7-0.1C17.5,23.5,11.5,19.4,4.8,23.4z"/>
<path style="fill:#FFFFFF;" d="M17.5,25.3c6.2-4,11.1-0.9,11.1-0.9c-0.3,6.4-6.3,9.1-6.3,9.1c0.4,7.4-4.8,10-4.8,10
	c-5.5-3.7-4.7-9.9-4.7-9.9c-6.4-3-6.4-9.1-6.4-9.1C12.2,21.3,17.5,25.3,17.5,25.3z M18.9,26.1c-0.4,0.2-0.8,0.5-1.1,0.7
	c-0.1,0.1-0.2,0.1-0.3,0.2c-0.1,0-0.1-0.1-0.2-0.1c-0.4-0.3-0.8-0.6-1.2-0.8c-2.8-1.6-5.9-1.8-8.2-0.8c0.3,2.5,2,5.1,4.8,6.7
	c0.4,0.3,0.9,0.5,1.4,0.7c0.1,0,0.2,0.1,0.2,0.1c0,0.1,0,0.1,0,0.2c-0.1,0.4-0.1,0.9-0.1,1.4c0,3.2,1.2,6,3.3,7.5
	c2-1.5,3.5-4.3,3.5-7.5c0-0.5,0-1-0.1-1.4c0-0.1,0-0.1,0-0.2c0,0,0,0,0.1,0c0.5-0.2,0.9-0.4,1.4-0.7c2.8-1.6,4.5-4.2,4.8-6.7
	C24.7,24.2,21.6,24.5,18.9,26.1z"/>
</svg>
