<?xml version="1.0" encoding="utf-8"?>
<!-- Generator: Adobe Illustrator 21.0.2, SVG Export Plug-In . SVG Version: 6.00 Build 0)  -->
<svg version="1.1" id="Layer_1" xmlns="http://www.w3.org/2000/svg" xmlns:xlink="http://www.w3.org/1999/xlink" x="0px" y="0px"
	 viewBox="0 0 60 60" style="enable-background:new 0 0 60 60;" xml:space="preserve">
<style type="text/css">
	.st0{fill:#6583CB;}
	.st1{fill:#526AA6;}
	.st2{fill:#FFFFFF;}
</style>
<rect class="st0" width="60" height="60"/>
<g>
	<path class="st0" d="M24.5,31.3h-4v-7.1h4v-4.6c0-3.3,1.7-8.5,8.5-8.5h6.2l20.7,22V0H0v60h34.5l-10-8.4
		C24.5,51.6,24.5,40.5,24.5,31.3z"/>
	<path class="st1" d="M60,33.1l-20.7-22V18c0,0-3.7,0-4.5,0S33,18.4,33,19.9v4.2v0.1h6.2l-0.8,7.1h-5.6c0,9.1,0,20.3,0,20.3h-8.4
		l10,8.4H60V33.1z"/>
	<path class="st2" d="M33,19.9c0-1.5,1-1.9,1.8-1.9s4.5,0,4.5,0v-6.9H33c-6.9,0-8.5,5.2-8.5,8.5v4.6h-4v7.1h4c0,9.2,0,20.3,0,20.3
		h8.4c0,0,0-11.2,0-20.3h5.6l0.8-7.1H33v-0.1V19.9z"/>
</g>
</svg>
