<?xml version="1.0" encoding="utf-8"?>
<!-- Generator: Adobe Illustrator 21.0.2, SVG Export Plug-In . SVG Version: 6.00 Build 0)  -->
<svg version="1.1" id="Layer_1" xmlns="http://www.w3.org/2000/svg" xmlns:xlink="http://www.w3.org/1999/xlink" x="0px" y="0px"
	 viewBox="0 0 60 60" style="enable-background:new 0 0 60 60;" xml:space="preserve">
<style type="text/css">
	.st0{fill:#608AB1;}
	.st1{fill:#507597;}
	.st2{fill:#FFFFFF;}
</style>
<rect class="st0" width="59.9" height="59.9"/>
<path class="st0" d="M12,47.6c-0.5-0.6-0.8-1.4-0.8-2.3V22v-7.7c0-2.1,1.7-3.9,3.9-3.9h31h0.1c2.1,0,3.8,1.7,3.9,3.8l9.9,9.6V0H0
	v59.9h22L12,49.2V47.6z"/>
<path class="st1" d="M42.2,29.8c0,6.4-5.2,11.6-11.6,11.6S19,36.2,19,29.8c0-0.6,0-1.4,0.2-1.9h-4.1v16.5c0,0.6,0.4,1,1,1h29.1
	c0.6,0,1-0.4,1-1V27.8h-4.1C42.2,28.4,42.2,29.2,42.2,29.8z"/>
<path class="st1" d="M45.2,14.3h-3.9c-0.6,0-1,0.4-1,1v3.9c0,0.6,0.4,1,1,1h3.9c0.6,0,1-0.4,1-1v-3.9C46.1,14.7,45.7,14.3,45.2,14.3
	z"/>
<path class="st1" d="M30.6,37.5c4.3,0,7.8-3.5,7.8-7.8s-3.5-7.8-7.8-7.8s-7.8,3.5-7.8,7.8C22.9,34,26.4,37.5,30.6,37.5z"/>
<path class="st1" d="M59.9,23.7L50,14.2v0.1v31c0,2.1-1.7,3.9-3.9,3.9h-31c-1.3,0-2.4-0.6-3.1-1.6v1.6l10,10.7h37.9V23.7z"/>
<path class="st2" d="M46.1,10.4L46.1,10.4l-31,0c-2.1,0-3.9,1.7-3.9,3.9V22l0,0v23.3c0,0.9,0.3,1.7,0.8,2.3c0.7,0.9,1.8,1.6,3.1,1.6
	h31c2.1,0,3.9-1.7,3.9-3.9v-31v-0.1C49.9,12.1,48.2,10.4,46.1,10.4z M30.6,22c4.3,0,7.8,3.5,7.8,7.8s-3.5,7.8-7.8,7.8
	c-4.3,0-7.8-3.5-7.8-7.8C22.9,25.5,26.4,22,30.6,22z M46.1,44.3c0,0.6-0.4,1-1,1h-29c-0.6,0-1-0.4-1-1V27.8h4.1
	c-0.2,0.6-0.2,1.4-0.2,2c0,6.4,5.2,11.6,11.6,11.6c6.4,0,11.6-5.2,11.6-11.6c0-0.6,0-1.4-0.2-1.9h4.1V44.3z M46.1,19.1
	c0,0.6-0.4,1-1,1h-3.9c-0.6,0-1-0.4-1-1v-3.9c0-0.6,0.4-1,1-1h3.9c0.6,0,1,0.4,1,1V19.1z"/>
</svg>
