<?xml version="1.0" encoding="utf-8"?>
<!-- Generator: Adobe Illustrator 21.0.2, SVG Export Plug-In . SVG Version: 6.00 Build 0)  -->
<svg version="1.1" id="Layer_1" xmlns="http://www.w3.org/2000/svg" xmlns:xlink="http://www.w3.org/1999/xlink" x="0px" y="0px"
	 viewBox="0 0 60 60" style="enable-background:new 0 0 60 60;" xml:space="preserve">
<style type="text/css">
	.st0{fill:#64CBEE;}
	.st1{fill:#57A1CC;}
	.st2{fill:#FFFFFF;}
</style>
<rect class="st0" width="60" height="60"/>
<path class="st1" d="M60,27.7L49.1,17.3c-1,1.5-2.3,3-3.7,4.2c0,0.4,0,0.7,0,1.1c0,11-7.8,23.7-22,23.7c-3.3,0-6.4-0.8-9.2-2.2h-0.1
	l15,15.8H60V27.7z"/>
<path class="st1" d="M44.8,18.5c1.5-0.2,2.9-0.6,4.2-1.2l-1.6-1.6C46.7,16.8,45.8,17.7,44.8,18.5z"/>
<path class="st0" d="M0,0v60h29.2l-15-15.8h0.1c-0.9-0.4-1.7-1-2.6-1.5c0.7,0.1,1.2,0.1,1.9,0.1c0.9,0,1.8-0.1,2.6-0.2
	c2.6-0.5,4.9-1.6,6.9-3.3c-0.9,0-1.7-0.2-2.5-0.5c-2.2-0.9-4-2.8-4.7-5.3c0.5,0.1,0.9,0.1,1.5,0.1c0.7,0,1.3-0.1,2-0.3
	c-3.6-0.8-6.2-4.2-6.2-8.2V25c0.9,0.7,2.1,1.1,3.4,1.1c-2.1-1.5-3.4-4-3.4-6.9c0-1.6,0.4-3,1.1-4.2c3.8,4.9,9.5,8.3,15.9,8.6
	c0-0.5-0.1-1.2-0.1-1.9c0-4.6,3.4-8.3,7.7-8.3c2.3,0,4.2,1.1,5.7,2.7c1.7-0.4,3.4-1.1,4.9-2c-0.2,0.7-0.5,1.3-0.8,1.9l1.6,1.6
	c0.1,0,0.2-0.1,0.3-0.1c0,0.1-0.1,0.1-0.1,0.2l10.6,10V0H0z"/>
<path class="st2" d="M49,17.2l0.1,0.1c0-0.1,0.1-0.1,0.1-0.2C49.2,17.2,49.1,17.2,49,17.2z"/>
<path class="st2" d="M49,17.2c-1.4,0.6-2.7,1-4.2,1.2c1.1-0.7,1.9-1.6,2.6-2.8c0.3-0.6,0.6-1.2,0.8-1.9c-1.5,0.9-3.2,1.6-4.9,2
	c-1.5-1.6-3.4-2.7-5.7-2.7c-4.2,0-7.7,3.7-7.7,8.3c0,0.7,0.1,1.3,0.1,1.9c-6.4-0.3-12.1-3.7-15.9-8.6c-0.7,1.2-1.1,2.7-1.1,4.2
	c0,2.9,1.3,5.4,3.4,6.9c-1.3,0-2.5-0.4-3.4-1.1v0.1c0,4,2.7,7.4,6.2,8.2c-0.7,0.1-1.3,0.3-2,0.3c-0.5,0-0.9,0-1.5-0.1
	c0.7,2.4,2.5,4.4,4.7,5.3c0.8,0.3,1.6,0.5,2.5,0.5c-2,1.7-4.4,2.9-6.9,3.3c-0.8,0.2-1.7,0.2-2.6,0.2c-0.7,0-1.2,0-1.9-0.1
	c0.8,0.6,1.7,1.1,2.6,1.5c2.8,1.4,5.9,2.2,9.2,2.2c14.2,0,22-12.7,22-23.7c0-0.4,0-0.7,0-1.1c1.4-1.1,2.7-2.6,3.7-4.2L49,17.2z"/>
</svg>
