<?xml version="1.0" encoding="utf-8"?>
<!-- Generator: Adobe Illustrator 21.0.2, SVG Export Plug-In . SVG Version: 6.00 Build 0)  -->
<svg version="1.1" id="Layer_1" xmlns="http://www.w3.org/2000/svg" xmlns:xlink="http://www.w3.org/1999/xlink" x="0px" y="0px"
	 viewBox="0 0 60 60" style="enable-background:new 0 0 60 60;" xml:space="preserve">
<rect y="0" style="fill:#DD5A4A;" width="60" height="60"/>
<path style="fill:#DD5A4A;" d="M0,0v60h30.5L13.2,42c-0.3-0.2-0.5-0.5-0.7-0.8L12.2,41l0,0c-1.3-1.8-1.7-4.3-1.7-7.5v-6.9
	c0-3.6,0-6.2,1.4-8c1.4-1.8,4.1-2.6,9.3-2.6h18.4c5.1,0,7.7,0.7,9.2,2.4c0.7,0.8,1,1.7,1.2,2.9l9.9,10V0H0z"/>
<polygon style="fill:#BA4B3E;" points="30.5,60 60,60 30.5,60 "/>
<path style="fill:#BA4B3E;" d="M12.2,41l0.2,0.2C12.4,41.1,12.3,41,12.2,41L12.2,41z"/>
<path style="fill:#BA4B3E;" d="M26.6,35.3c0.2,0.1,0.4,0.2,0.7,0.2c0.2,0,0.4,0,0.6-0.1l8.4-4.4c0.4-0.2,0.7-0.7,0.7-1.1
	c0-0.5-0.3-0.9-0.7-1.1l-8.4-4.3c-0.4-0.2-0.9-0.2-1.3,0c-0.4,0.2-0.6,0.6-0.6,1.1v8.7C25.9,34.6,26.2,35,26.6,35.3z"/>
<path style="fill:#BA4B3E;" d="M50.4,26.5v6.9c0,4.4-0.7,6.9-2.3,8.4c-1.6,1.5-4,2.1-8.4,2.1H21.3c-4,0-6.5-0.7-8.1-2.1l17.3,18H60
	V31.3l-9.9-10C50.4,22.7,50.4,24.4,50.4,26.5z"/>
<path style="fill:#FFFFFF;" d="M50.1,21.3c-0.2-1.2-0.6-2.1-1.2-2.9c-1.4-1.7-4.1-2.4-9.2-2.4H21.3c-5.2,0-7.9,0.7-9.3,2.6
	c-1.4,1.8-1.4,4.4-1.4,8v6.9c0,3.3,0.4,5.8,1.7,7.5c0.1,0.1,0.1,0.1,0.2,0.2c0.2,0.3,0.5,0.5,0.7,0.8c1.6,1.4,4.2,2.1,8.1,2.1h18.4
	c4.4,0,6.8-0.6,8.4-2.1c1.6-1.5,2.3-4.1,2.3-8.4v-6.9C50.4,24.4,50.4,22.7,50.1,21.3z M36.2,30.9l-8.4,4.4c-0.2,0.1-0.4,0.1-0.6,0.1
	c-0.2,0-0.5-0.1-0.7-0.2c-0.4-0.2-0.6-0.6-0.6-1.1v-8.7c0-0.4,0.2-0.9,0.6-1.1c0.4-0.2,0.9-0.2,1.3,0l8.4,4.3
	c0.4,0.2,0.7,0.7,0.7,1.1C36.9,30.3,36.6,30.7,36.2,30.9z"/>
</svg>
